<?xml version="1.0" encoding="UTF-8"?>
<svg xmlns="http://www.w3.org/2000/svg" xmlns:xlink="http://www.w3.org/1999/xlink" width="2500px" height="2500px" viewBox="0 0 2500 2500" version="1.1">
<g id="surface1">
<path style=" stroke:none;fill-rule:nonzero;fill:rgb(99.607843%,99.607843%,99.607843%);fill-opacity:1;" d="M 648.195312 720.214844 L 676.269531 720.214844 L 716.554688 721.4375 L 754.394531 726.320312 L 789.796875 733.640625 L 826.414062 743.40625 L 858.15625 754.394531 L 892.335938 769.042969 L 911.867188 778.808594 L 932.617188 789.796875 L 955.8125 804.445312 L 970.460938 814.210938 L 992.429688 830.078125 L 1009.523438 843.507812 L 1027.832031 859.375 L 1047.363281 877.6875 L 1057.128906 887.453125 L 1065.671875 897.21875 L 1081.542969 915.527344 L 1097.414062 935.058594 L 1114.5 959.472656 L 1134.03125 991.210938 L 1146.242188 1013.183594 L 1158.445312 1038.820312 L 1175.539062 1080.320312 L 1184.082031 1105.957031 L 1195.070312 1151.125 L 1201.171875 1193.847656 L 1203.613281 1219.484375 L 1204.835938 1279.296875 L 1204.835938 1306.152344 L 1201.171875 1335.449219 L 1193.847656 1379.394531 L 1185.304688 1413.574219 L 1174.316406 1447.753906 L 1162.109375 1478.273438 L 1145.019531 1513.671875 L 1134.03125 1534.421875 L 1116.945312 1561.28125 L 1108.398438 1573.484375 L 1098.632812 1586.914062 L 1083.984375 1606.445312 L 1074.21875 1617.429688 L 1063.234375 1630.859375 L 1033.9375 1660.15625 L 1020.507812 1671.140625 L 1005.859375 1684.570312 L 981.445312 1702.882812 L 955.8125 1719.96875 L 933.835938 1733.398438 L 914.304688 1744.382812 L 894.773438 1754.148438 L 870.359375 1765.136719 L 837.402344 1777.34375 L 805.664062 1787.109375 L 769.042969 1795.65625 L 739.746094 1800.539062 L 700.683594 1804.199219 L 681.152344 1805.421875 L 639.648438 1805.421875 L 593.261719 1801.757812 L 561.523438 1796.875 L 532.226562 1790.773438 L 494.382812 1779.785156 L 452.882812 1765.136719 L 428.46875 1754.148438 L 404.054688 1741.945312 L 369.875 1721.191406 L 347.898438 1706.542969 L 334.472656 1696.777344 L 321.046875 1685.789062 L 303.953125 1671.140625 L 288.085938 1656.492188 L 278.320312 1647.949219 L 264.890625 1634.523438 L 253.90625 1621.09375 L 239.257812 1605.226562 L 230.710938 1594.238281 L 214.84375 1573.484375 L 198.976562 1547.851562 L 187.988281 1529.539062 L 170.898438 1496.582031 L 159.914062 1472.167969 L 147.703125 1439.210938 L 135.5 1400.148438 L 130.617188 1379.394531 L 126.953125 1357.421875 L 123.289062 1337.890625 L 119.628906 1307.375 L 119.628906 1269.53125 L 120.851562 1223.144531 L 123.289062 1192.625 L 131.835938 1140.136719 L 140.382812 1107.179688 L 151.367188 1074.21875 L 169.679688 1031.492188 L 179.445312 1011.960938 L 190.429688 992.429688 L 208.742188 961.914062 L 218.507812 947.265625 L 229.492188 932.617188 L 242.921875 916.75 L 253.90625 903.320312 L 269.773438 887.453125 L 278.320312 877.6875 L 286.867188 869.140625 L 296.632812 860.59375 L 308.835938 848.390625 L 325.929688 834.960938 L 349.121094 817.871094 L 364.992188 806.882812 L 388.183594 792.234375 L 410.15625 780.03125 L 429.6875 770.265625 L 472.414062 751.953125 L 506.59375 740.96875 L 550.539062 729.980469 L 577.390625 725.097656 L 605.46875 721.4375 Z M 648.195312 720.214844 "/>
<path style=" stroke:none;fill-rule:nonzero;fill:rgb(99.215686%,99.215686%,99.215686%);fill-opacity:1;" d="M 1285.398438 1132.8125 L 1330.566406 1132.8125 L 1337.890625 1135.253906 L 1350.097656 1165.773438 L 1365.96875 1207.273438 L 1379.394531 1241.453125 L 1385.5 1253.664062 L 1387.9375 1254.882812 L 1390.382812 1247.558594 L 1406.25 1208.496094 L 1428.222656 1148.679688 L 1434.328125 1136.476562 L 1439.210938 1132.8125 L 1481.933594 1132.8125 L 1489.257812 1134.03125 L 1491.699219 1146.242188 L 1500.242188 1248.78125 L 1507.570312 1328.125 L 1507.570312 1354.980469 L 1506.347656 1356.203125 L 1459.960938 1356.203125 L 1457.519531 1347.65625 L 1450.195312 1263.429688 L 1447.753906 1245.117188 L 1445.3125 1239.015625 L 1441.648438 1243.898438 L 1430.664062 1273.195312 L 1405.03125 1346.4375 L 1400.148438 1354.980469 L 1372.070312 1354.980469 L 1367.1875 1346.4375 L 1356.203125 1317.140625 L 1341.554688 1273.195312 L 1329.34375 1242.675781 L 1324.460938 1239.015625 L 1319.578125 1289.0625 L 1314.695312 1350.097656 L 1313.476562 1354.980469 L 1311.035156 1356.203125 L 1263.429688 1356.203125 L 1263.429688 1333.007812 L 1273.195312 1229.25 L 1280.515625 1141.359375 L 1282.960938 1134.03125 Z M 1285.398438 1132.8125 "/>
<path style=" stroke:none;fill-rule:nonzero;fill:rgb(23.529412%,30.980392%,49.019608%);fill-opacity:1;" d="M 247.804688 1160.890625 L 264.890625 1160.890625 L 277.101562 1164.550781 L 288.085938 1171.875 L 295.410156 1180.421875 L 297.851562 1184.082031 L 311.28125 1169.433594 L 322.265625 1163.328125 L 333.25 1160.890625 L 350.34375 1160.890625 L 363.769531 1164.550781 L 373.535156 1170.65625 L 382.078125 1180.421875 L 388.183594 1192.625 L 390.625 1202.390625 L 390.625 1339.109375 L 358.886719 1339.109375 L 350.34375 1336.671875 L 347.898438 1287.84375 L 355.226562 1284.179688 L 358.886719 1278.078125 L 360.109375 1273.195312 L 360.109375 1221.921875 L 357.664062 1221.921875 L 356.445312 1264.648438 L 351.5625 1264.648438 L 351.5625 1240.234375 L 352.78125 1221.921875 L 347.898438 1220.703125 L 347.898438 1262.207031 L 346.679688 1264.648438 L 343.015625 1264.648438 L 343.015625 1221.921875 L 336.914062 1221.921875 L 336.914062 1265.867188 L 333.25 1264.648438 L 332.03125 1220.703125 L 328.367188 1223.144531 L 328.367188 1262.207031 L 329.589844 1278.078125 L 335.695312 1285.398438 L 340.578125 1289.0625 L 340.578125 1304.929688 L 338.132812 1337.890625 L 336.914062 1339.109375 L 277.101562 1339.109375 L 266.113281 1337.890625 L 264.890625 1328.125 L 263.671875 1304.929688 L 263.671875 1286.621094 L 274.65625 1279.296875 L 280.761719 1269.53125 L 281.984375 1265.867188 L 281.984375 1248.78125 L 277.101562 1235.351562 L 270.996094 1225.585938 L 264.890625 1221.921875 L 253.90625 1221.921875 L 244.140625 1230.46875 L 238.039062 1243.898438 L 236.816406 1250 L 236.816406 1263.429688 L 241.699219 1275.632812 L 247.804688 1281.738281 L 256.347656 1286.621094 L 253.90625 1328.125 L 252.6875 1337.890625 L 251.464844 1339.109375 L 209.960938 1339.109375 L 206.296875 1337.890625 L 205.078125 1333.007812 L 205.078125 1214.601562 L 207.519531 1195.070312 L 214.84375 1180.421875 L 225.828125 1169.433594 L 238.039062 1163.328125 Z M 247.804688 1160.890625 "/>
<path style=" stroke:none;fill-rule:nonzero;fill:rgb(23.529412%,30.980392%,49.019608%);fill-opacity:1;" d="M 703.125 1207.273438 L 750.734375 1207.273438 L 751.953125 1278.078125 L 753.171875 1281.738281 L 758.054688 1284.179688 L 765.382812 1282.960938 L 767.820312 1275.632812 L 769.042969 1207.273438 L 816.648438 1207.273438 L 817.871094 1208.496094 L 817.871094 1326.90625 L 814.210938 1346.4375 L 805.664062 1363.523438 L 794.679688 1375.734375 L 783.691406 1384.277344 L 770.265625 1390.382812 L 753.171875 1394.042969 L 733.640625 1392.820312 L 721.4375 1389.160156 L 720.214844 1387.9375 L 720.214844 1347.65625 L 734.863281 1350.097656 L 748.289062 1348.875 L 758.054688 1342.773438 L 765.382812 1331.789062 L 765.382812 1328.125 L 750.734375 1333.007812 L 736.085938 1333.007812 L 723.875 1328.125 L 715.332031 1322.023438 L 706.789062 1309.8125 L 703.125 1297.609375 Z M 703.125 1207.273438 "/>
<path style=" stroke:none;fill-rule:nonzero;fill:rgb(99.607843%,99.607843%,99.607843%);fill-opacity:1;" d="M 1872.558594 1217.039062 L 1904.296875 1217.039062 L 1909.179688 1219.484375 L 1925.046875 1248.78125 L 1940.917969 1276.855469 L 1944.578125 1284.179688 L 1947.023438 1284.179688 L 1956.789062 1264.648438 L 1967.773438 1241.453125 L 1976.320312 1223.144531 L 1978.757812 1218.261719 L 1981.203125 1217.039062 L 2005.617188 1217.039062 L 2032.46875 1218.261719 L 2031.25 1224.367188 L 2021.484375 1243.898438 L 2005.617188 1274.414062 L 1993.40625 1297.609375 L 1978.757812 1325.683594 L 1967.773438 1346.4375 L 1958.007812 1365.96875 L 1928.710938 1422.117188 L 1925.046875 1425.78125 L 1872.558594 1425.78125 L 1871.335938 1423.339844 L 1885.984375 1394.042969 L 1900.632812 1367.1875 L 1916.503906 1335.449219 L 1906.738281 1314.695312 L 1875 1258.546875 L 1856.6875 1226.804688 L 1854.25 1218.261719 Z M 1872.558594 1217.039062 "/>
<path style=" stroke:none;fill-rule:nonzero;fill:rgb(99.607843%,99.607843%,99.607843%);fill-opacity:1;" d="M 2105.710938 1213.378906 L 2128.90625 1213.378906 L 2147.21875 1217.039062 L 2160.644531 1223.144531 L 2172.851562 1230.46875 L 2185.058594 1241.453125 L 2192.382812 1251.21875 L 2198.484375 1264.648438 L 2200.929688 1273.195312 L 2200.929688 1301.269531 L 2196.046875 1315.917969 L 2187.5 1330.566406 L 2176.515625 1341.554688 L 2160.644531 1351.320312 L 2147.21875 1356.203125 L 2133.789062 1359.863281 L 2100.828125 1359.863281 L 2082.519531 1354.980469 L 2065.429688 1346.4375 L 2050.78125 1333.007812 L 2042.234375 1320.800781 L 2037.351562 1308.59375 L 2034.914062 1296.386719 L 2034.914062 1275.632812 L 2041.015625 1256.101562 L 2048.339844 1245.117188 L 2058.105469 1234.132812 L 2070.3125 1225.585938 L 2082.519531 1219.484375 L 2098.390625 1214.601562 Z M 2111.816406 1253.664062 L 2099.609375 1258.546875 L 2093.507812 1263.429688 L 2088.625 1270.75 L 2086.179688 1278.078125 L 2086.179688 1296.386719 L 2091.0625 1307.375 L 2100.828125 1315.917969 L 2109.375 1319.578125 L 2126.464844 1319.578125 L 2138.671875 1313.476562 L 2145.996094 1304.929688 L 2149.65625 1296.386719 L 2150.878906 1284.179688 L 2148.4375 1274.414062 L 2143.554688 1265.867188 L 2133.789062 1257.324219 L 2124.023438 1253.664062 Z M 2111.816406 1253.664062 "/>
<path style=" stroke:none;fill-rule:nonzero;fill:rgb(99.215686%,99.215686%,99.215686%);fill-opacity:1;" d="M 1774.902344 1213.378906 L 1790.773438 1213.378906 L 1810.304688 1218.261719 L 1824.953125 1225.585938 L 1835.9375 1236.570312 L 1840.820312 1246.335938 L 1843.261719 1254.882812 L 1843.261719 1354.980469 L 1840.820312 1356.203125 L 1796.875 1356.203125 L 1795.65625 1353.757812 L 1794.433594 1271.972656 L 1788.328125 1259.765625 L 1781.007812 1253.664062 L 1772.460938 1251.21875 L 1762.695312 1252.441406 L 1752.929688 1258.546875 L 1745.605469 1267.089844 L 1743.164062 1276.855469 L 1743.164062 1347.65625 L 1741.945312 1354.980469 L 1739.5 1356.203125 L 1696.777344 1356.203125 L 1694.335938 1351.320312 L 1694.335938 1219.484375 L 1695.554688 1218.261719 L 1710.203125 1217.039062 L 1739.5 1217.039062 L 1743.164062 1220.703125 L 1744.382812 1226.804688 L 1750.488281 1224.367188 L 1770.019531 1214.601562 Z M 1774.902344 1213.378906 "/>
<path style=" stroke:none;fill-rule:nonzero;fill:rgb(99.607843%,99.607843%,99.607843%);fill-opacity:1;" d="M 1585.695312 1213.378906 L 1606.445312 1213.378906 L 1623.535156 1217.039062 L 1638.183594 1223.144531 L 1652.832031 1234.132812 L 1661.375 1245.117188 L 1667.480469 1258.546875 L 1671.140625 1275.632812 L 1671.140625 1292.726562 L 1667.480469 1293.945312 L 1572.265625 1295.164062 L 1572.265625 1303.710938 L 1578.367188 1313.476562 L 1588.132812 1319.578125 L 1591.796875 1320.800781 L 1611.328125 1320.800781 L 1623.535156 1315.917969 L 1633.300781 1307.375 L 1644.289062 1311.035156 L 1666.257812 1323.242188 L 1667.480469 1328.125 L 1652.832031 1343.992188 L 1638.183594 1352.539062 L 1618.652344 1358.640625 L 1613.769531 1359.863281 L 1582.03125 1359.863281 L 1563.71875 1353.757812 L 1551.515625 1346.4375 L 1539.304688 1335.449219 L 1531.984375 1326.90625 L 1523.4375 1309.8125 L 1520.996094 1301.269531 L 1519.773438 1282.960938 L 1522.21875 1267.089844 L 1528.320312 1253.664062 L 1535.644531 1242.675781 L 1544.1875 1232.910156 L 1556.398438 1224.367188 L 1571.046875 1217.039062 Z M 1588.132812 1245.117188 L 1578.367188 1251.21875 L 1572.265625 1259.765625 L 1572.265625 1265.867188 L 1574.707031 1267.089844 L 1623.535156 1267.089844 L 1622.3125 1258.546875 L 1612.546875 1247.558594 L 1605.226562 1245.117188 Z M 1588.132812 1245.117188 "/>
<path style=" stroke:none;fill-rule:nonzero;fill:rgb(99.607843%,99.607843%,99.607843%);fill-opacity:1;" d="M 2224.121094 1217.039062 L 2269.289062 1218.261719 L 2270.507812 1290.28125 L 2272.949219 1304.929688 L 2279.054688 1314.695312 L 2283.9375 1318.359375 L 2287.597656 1319.578125 L 2305.90625 1319.578125 L 2315.671875 1314.695312 L 2320.554688 1304.929688 L 2323 1292.726562 L 2324.21875 1218.261719 L 2325.4375 1217.039062 L 2341.308594 1217.039062 L 2371.828125 1218.261719 L 2373.046875 1229.25 L 2373.046875 1271.972656 L 2371.828125 1311.035156 L 2368.164062 1325.683594 L 2362.0625 1336.671875 L 2354.734375 1345.214844 L 2346.191406 1351.320312 L 2332.765625 1356.203125 L 2316.894531 1359.863281 L 2274.171875 1359.863281 L 2255.859375 1354.980469 L 2242.429688 1347.65625 L 2235.109375 1341.554688 L 2226.5625 1326.90625 L 2221.679688 1307.375 L 2221.679688 1218.261719 Z M 2224.121094 1217.039062 "/>
<path style=" stroke:none;fill-rule:nonzero;fill:rgb(23.529412%,30.980392%,49.019608%);fill-opacity:1;" d="M 897.21875 1203.613281 L 913.085938 1203.613281 L 930.175781 1208.496094 L 943.601562 1215.820312 L 955.8125 1226.804688 L 963.132812 1236.570312 L 969.238281 1248.78125 L 971.679688 1259.765625 L 971.679688 1280.515625 L 969.238281 1290.28125 L 964.355469 1301.269531 L 957.03125 1312.257812 L 948.484375 1320.800781 L 935.058594 1329.34375 L 917.96875 1335.449219 L 892.335938 1335.449219 L 878.90625 1331.789062 L 865.476562 1324.460938 L 853.273438 1313.476562 L 844.726562 1302.492188 L 838.625 1287.84375 L 837.402344 1281.738281 L 837.402344 1258.546875 L 841.0625 1245.117188 L 848.390625 1231.6875 L 856.933594 1221.921875 L 869.140625 1213.378906 L 882.570312 1207.273438 Z M 897.21875 1203.613281 "/>
<path style=" stroke:none;fill-rule:nonzero;fill:rgb(23.529412%,30.980392%,49.019608%);fill-opacity:1;" d="M 991.210938 1208.496094 L 1038.820312 1208.496094 L 1040.039062 1209.71875 L 1041.257812 1285.398438 L 1044.921875 1289.0625 L 1055.90625 1287.84375 L 1057.128906 1208.496094 L 1104.734375 1208.496094 L 1105.957031 1219.484375 L 1104.734375 1291.503906 L 1099.851562 1306.152344 L 1091.308594 1318.359375 L 1082.765625 1326.90625 L 1073 1333.007812 L 1062.011719 1336.671875 L 1055.90625 1337.890625 L 1040.039062 1337.890625 L 1025.390625 1334.226562 L 1010.742188 1325.683594 L 999.757812 1313.476562 L 993.652344 1300.046875 L 991.210938 1291.503906 L 989.992188 1271.972656 L 989.992188 1224.367188 Z M 991.210938 1208.496094 "/>
<path style=" stroke:none;fill-rule:nonzero;fill:rgb(23.529412%,30.980392%,49.019608%);fill-opacity:1;" d="M 614.015625 1203.613281 L 626.21875 1203.613281 L 644.53125 1208.496094 L 657.960938 1217.039062 L 667.726562 1228.027344 L 673.828125 1241.453125 L 676.269531 1251.21875 L 677.492188 1265.867188 L 677.492188 1325.683594 L 676.269531 1334.226562 L 644.53125 1334.226562 L 628.664062 1333.007812 L 627.441406 1256.101562 L 625 1253.664062 L 615.234375 1253.664062 L 612.792969 1256.101562 L 611.570312 1333.007812 L 562.742188 1333.007812 L 562.742188 1253.664062 L 566.40625 1240.234375 L 573.730469 1226.804688 L 585.9375 1214.601562 L 603.027344 1206.054688 Z M 614.015625 1203.613281 "/>
<path style=" stroke:none;fill-rule:nonzero;fill:rgb(23.529412%,30.980392%,49.019608%);fill-opacity:1;" d="M 467.53125 1203.613281 L 493.164062 1203.613281 L 506.59375 1208.496094 L 518.796875 1215.820312 L 526.125 1221.921875 L 531.007812 1228.027344 L 528.5625 1232.910156 L 495.605469 1265.867188 L 493.164062 1265.867188 L 490.722656 1270.75 L 482.179688 1279.296875 L 476.074219 1279.296875 L 469.96875 1274.414062 L 465.085938 1265.867188 L 467.53125 1259.765625 L 478.515625 1250 L 479.734375 1246.335938 L 467.53125 1245.117188 L 460.203125 1250 L 456.542969 1258.546875 L 457.765625 1269.53125 L 465.085938 1281.738281 L 476.074219 1289.0625 L 479.734375 1290.28125 L 490.722656 1290.28125 L 496.828125 1286.621094 L 500.488281 1281.738281 L 504.148438 1271.972656 L 544.433594 1275.632812 L 543.210938 1285.398438 L 538.328125 1298.828125 L 531.007812 1311.035156 L 518.796875 1323.242188 L 505.371094 1331.789062 L 491.945312 1336.671875 L 484.617188 1337.890625 L 471.191406 1337.890625 L 457.765625 1335.449219 L 440.671875 1326.90625 L 427.246094 1314.695312 L 418.703125 1301.269531 L 413.820312 1289.0625 L 412.597656 1282.960938 L 412.597656 1260.984375 L 417.480469 1245.117188 L 426.023438 1230.46875 L 440.671875 1215.820312 L 452.882812 1208.496094 Z M 467.53125 1203.613281 "/>
<path style=" stroke:none;fill-rule:nonzero;fill:rgb(23.529412%,30.980392%,49.019608%);fill-opacity:1;" d="M 1101.074219 1333.007812 L 1109.617188 1335.449219 L 1113.28125 1339.109375 L 1114.5 1341.554688 L 1114.5 1350.097656 L 1107.179688 1358.640625 L 1091.308594 1368.40625 L 1071.777344 1376.953125 L 1053.46875 1381.835938 L 1038.820312 1384.277344 L 1022.949219 1385.5 L 1002.195312 1385.5 L 970.460938 1381.835938 L 916.75 1372.070312 L 905.761719 1370.851562 L 892.335938 1370.851562 L 872.804688 1374.511719 L 858.15625 1381.835938 L 849.609375 1389.160156 L 844.726562 1391.601562 L 836.179688 1390.382812 L 831.296875 1385.5 L 830.078125 1383.054688 L 830.078125 1375.734375 L 837.402344 1365.96875 L 849.609375 1357.421875 L 865.476562 1350.097656 L 881.347656 1346.4375 L 917.96875 1346.4375 L 939.941406 1350.097656 L 977.78125 1357.421875 L 998.535156 1359.863281 L 1025.390625 1359.863281 L 1047.363281 1357.421875 L 1065.671875 1352.539062 L 1085.203125 1342.773438 L 1097.414062 1334.226562 Z M 1101.074219 1333.007812 "/>
<path style=" stroke:none;fill-rule:nonzero;fill:rgb(23.529412%,30.980392%,49.019608%);fill-opacity:1;" d="M 853.273438 1743.164062 L 856.933594 1744.382812 L 863.039062 1760.253906 L 863.039062 1762.695312 L 848.390625 1768.796875 L 809.328125 1781.007812 L 775.148438 1789.550781 L 739.746094 1795.65625 L 716.554688 1798.09375 L 700.683594 1798.09375 L 699.460938 1789.550781 L 699.460938 1778.5625 L 700.683594 1777.34375 L 747.070312 1771.242188 L 778.808594 1765.136719 L 815.429688 1755.371094 Z M 853.273438 1743.164062 "/>
<path style=" stroke:none;fill-rule:nonzero;fill:rgb(25.490196%,32.941176%,50.196078%);fill-opacity:1;" d="M 1130.371094 1494.140625 L 1136.476562 1495.359375 L 1148.679688 1501.464844 L 1147.460938 1508.789062 L 1134.03125 1534.421875 L 1116.945312 1561.28125 L 1108.398438 1573.484375 L 1102.296875 1579.589844 L 1088.867188 1596.679688 L 1079.101562 1608.886719 L 1064.453125 1624.757812 L 1055.90625 1634.523438 L 1051.023438 1635.742188 L 1040.039062 1625.976562 L 1038.820312 1621.09375 L 1047.363281 1612.546875 L 1058.351562 1599.121094 L 1070.554688 1585.695312 L 1085.203125 1566.164062 L 1099.851562 1545.410156 L 1115.722656 1519.773438 Z M 1130.371094 1494.140625 "/>
<path style=" stroke:none;fill-rule:nonzero;fill:rgb(23.529412%,30.980392%,49.019608%);fill-opacity:1;" d="M 631.101562 725.097656 L 693.359375 725.097656 L 736.085938 728.757812 L 740.96875 729.980469 L 740.96875 742.1875 L 738.523438 750.734375 L 717.773438 749.511719 L 684.8125 747.070312 L 643.3125 747.070312 L 607.910156 749.511719 L 579.835938 751.953125 L 577.390625 747.070312 L 576.171875 731.203125 L 578.613281 729.980469 L 612.792969 726.320312 Z M 631.101562 725.097656 "/>
<path style=" stroke:none;fill-rule:nonzero;fill:rgb(23.529412%,30.980392%,49.019608%);fill-opacity:1;" d="M 954.589844 809.328125 L 960.695312 811.765625 L 980.226562 825.195312 L 994.875 836.179688 L 1010.742188 848.390625 L 1022.949219 859.375 L 1032.714844 867.921875 L 1047.363281 881.347656 L 1058.351562 892.335938 L 1066.894531 902.101562 L 1076.660156 913.085938 L 1079.101562 916.75 L 1077.882812 921.632812 L 1066.894531 930.175781 L 1062.011719 928.953125 L 1044.921875 910.644531 L 1018.066406 883.789062 L 1008.300781 875.242188 L 991.210938 860.59375 L 968.015625 843.507812 L 947.265625 828.859375 L 944.824219 827.636719 L 946.046875 821.53125 Z M 954.589844 809.328125 "/>
<path style=" stroke:none;fill-rule:nonzero;fill:rgb(23.529412%,30.980392%,49.019608%);fill-opacity:1;" d="M 341.796875 1667.480469 L 349.121094 1671.140625 L 385.742188 1695.554688 L 411.375 1710.203125 L 438.234375 1723.632812 L 480.957031 1741.945312 L 482.179688 1748.046875 L 478.515625 1760.253906 L 477.296875 1761.476562 L 468.75 1760.253906 L 444.335938 1750.488281 L 426.023438 1741.945312 L 406.492188 1732.179688 L 377.195312 1716.308594 L 360.109375 1705.320312 L 335.695312 1688.234375 L 332.03125 1684.570312 L 333.25 1678.46875 Z M 341.796875 1667.480469 "/>
<path style=" stroke:none;fill-rule:nonzero;fill:rgb(23.529412%,30.980392%,49.019608%);fill-opacity:1;" d="M 362.546875 812.988281 L 367.429688 815.429688 L 374.757812 827.636719 L 372.3125 832.519531 L 351.5625 847.167969 L 329.589844 864.257812 L 312.5 878.90625 L 296.632812 893.554688 L 278.320312 911.867188 L 269.773438 921.632812 L 257.570312 935.058594 L 252.6875 935.058594 L 249.023438 931.398438 L 241.699219 925.292969 L 242.921875 919.1875 L 256.347656 904.539062 L 264.890625 894.773438 L 294.1875 865.476562 L 303.953125 856.933594 L 319.824219 843.507812 L 335.695312 831.296875 L 352.78125 819.09375 Z M 362.546875 812.988281 "/>
<path style=" stroke:none;fill-rule:nonzero;fill:rgb(26.27451%,33.333333%,50.980392%);fill-opacity:1;" d="M 145.265625 1354.980469 L 148.925781 1358.640625 L 156.25 1391.601562 L 167.234375 1429.445312 L 179.445312 1461.179688 L 190.429688 1485.59375 L 200.195312 1505.125 L 200.195312 1507.570312 L 184.328125 1514.890625 L 179.445312 1513.671875 L 166.015625 1486.816406 L 150.148438 1446.53125 L 137.9375 1408.691406 L 130.617188 1379.394531 L 129.394531 1370.851562 L 129.394531 1359.863281 Z M 145.265625 1354.980469 "/>
<path style=" stroke:none;fill-rule:nonzero;fill:rgb(23.529412%,30.980392%,49.019608%);fill-opacity:1;" d="M 135.5 1125.488281 L 145.265625 1126.710938 L 155.03125 1130.371094 L 153.808594 1141.359375 L 146.484375 1179.199219 L 141.601562 1218.261719 L 140.382812 1234.132812 L 140.382812 1295.164062 L 131.835938 1297.609375 L 122.070312 1297.609375 L 119.628906 1289.0625 L 119.628906 1269.53125 L 120.851562 1223.144531 L 123.289062 1192.625 L 131.835938 1140.136719 Z M 135.5 1125.488281 "/>
<path style=" stroke:none;fill-rule:nonzero;fill:rgb(24.313725%,31.764706%,49.411765%);fill-opacity:1;" d="M 1182.859375 1118.164062 L 1186.523438 1118.164062 L 1192.625 1140.136719 L 1196.289062 1158.445312 L 1202.390625 1204.835938 L 1203.613281 1219.484375 L 1204.835938 1279.296875 L 1202.390625 1282.960938 L 1186.523438 1282.960938 L 1185.304688 1243.898438 L 1182.859375 1209.71875 L 1177.976562 1175.539062 L 1169.433594 1134.03125 L 1168.210938 1123.046875 Z M 1182.859375 1118.164062 "/>
<path style=" stroke:none;fill-rule:nonzero;fill:rgb(99.607843%,99.607843%,99.607843%);fill-opacity:1;" d="M 900.878906 1251.21875 L 911.867188 1252.441406 L 920.410156 1259.765625 L 922.851562 1267.089844 L 921.632812 1276.855469 L 916.75 1284.179688 L 910.644531 1287.84375 L 897.21875 1287.84375 L 888.671875 1280.515625 L 886.230469 1275.632812 L 886.230469 1264.648438 L 891.113281 1256.101562 Z M 900.878906 1251.21875 "/>
<path style=" stroke:none;fill-rule:nonzero;fill:rgb(25.490196%,32.941176%,50.196078%);fill-opacity:1;" d="M 1115.722656 968.015625 L 1120.605469 969.238281 L 1126.710938 979.003906 L 1127.929688 987.546875 L 1113.28125 994.875 L 1108.398438 992.429688 L 1101.074219 981.445312 L 1102.296875 976.5625 Z M 1115.722656 968.015625 "/>
<path style=" stroke:none;fill-rule:nonzero;fill:rgb(23.529412%,30.980392%,49.019608%);fill-opacity:1;" d="M 621.335938 1777.34375 L 639.648438 1778.5625 L 639.648438 1798.09375 L 638.429688 1799.316406 L 625 1799.316406 L 617.675781 1796.875 L 617.675781 1785.890625 L 618.898438 1778.5625 Z M 621.335938 1777.34375 "/>
<path style=" stroke:none;fill-rule:nonzero;fill:rgb(23.529412%,30.980392%,49.019608%);fill-opacity:1;" d="M 926.515625 1708.984375 L 930.175781 1710.203125 L 937.5 1724.851562 L 937.5 1727.296875 L 922.851562 1735.839844 L 917.96875 1735.839844 L 910.644531 1719.96875 L 913.085938 1715.085938 Z M 926.515625 1708.984375 "/>
<path style=" stroke:none;fill-rule:nonzero;fill:rgb(23.529412%,30.980392%,49.019608%);fill-opacity:1;" d="M 992.429688 1663.820312 L 997.3125 1666.257812 L 1005.859375 1678.46875 L 1003.417969 1683.351562 L 992.429688 1690.671875 L 986.328125 1689.453125 L 977.78125 1678.46875 L 979.003906 1673.585938 L 986.328125 1667.480469 Z M 992.429688 1663.820312 "/>
<path style=" stroke:none;fill-rule:nonzero;fill:rgb(23.529412%,30.980392%,49.019608%);fill-opacity:1;" d="M 434.570312 773.925781 L 439.453125 775.148438 L 444.335938 788.574219 L 443.117188 793.457031 L 430.90625 799.5625 L 424.804688 798.339844 L 418.703125 786.132812 L 419.921875 780.03125 L 429.6875 775.148438 Z M 434.570312 773.925781 "/>
<path style=" stroke:none;fill-rule:nonzero;fill:rgb(24.705882%,31.764706%,49.803922%);fill-opacity:1;" d="M 201.414062 974.121094 L 208.742188 976.5625 L 219.726562 983.886719 L 218.507812 988.769531 L 211.179688 1000.976562 L 205.078125 999.757812 L 194.09375 993.652344 L 192.871094 988.769531 Z M 201.414062 974.121094 "/>
<path style=" stroke:none;fill-rule:nonzero;fill:rgb(23.529412%,30.980392%,49.019608%);fill-opacity:1;" d="M 881.347656 770.265625 L 891.113281 773.925781 L 899.65625 778.808594 L 895.996094 789.796875 L 891.113281 797.117188 L 882.570312 794.679688 L 875.242188 791.015625 L 874.023438 784.914062 L 878.90625 773.925781 Z M 881.347656 770.265625 "/>
<path style=" stroke:none;fill-rule:nonzero;fill:rgb(23.529412%,30.980392%,49.019608%);fill-opacity:1;" d="M 506.59375 745.851562 L 516.359375 745.851562 L 520.019531 761.71875 L 520.019531 765.382812 L 509.03125 769.042969 L 500.488281 769.042969 L 496.828125 759.277344 L 495.605469 750.734375 Z M 506.59375 745.851562 "/>
<path style=" stroke:none;fill-rule:nonzero;fill:rgb(23.529412%,30.980392%,49.019608%);fill-opacity:1;" d="M 540.773438 1765.136719 L 555.421875 1767.578125 L 559.082031 1768.796875 L 557.859375 1784.667969 L 556.640625 1789.550781 L 546.875 1788.328125 L 535.890625 1784.667969 L 538.328125 1768.796875 Z M 540.773438 1765.136719 "/>
<path style=" stroke:none;fill-rule:nonzero;fill:rgb(23.529412%,30.980392%,49.019608%);fill-opacity:1;" d="M 280.761719 1619.875 L 286.867188 1621.09375 L 292.96875 1627.195312 L 292.96875 1629.640625 L 295.410156 1629.640625 L 295.410156 1635.742188 L 284.421875 1646.726562 L 278.320312 1644.289062 L 269.773438 1634.523438 L 270.996094 1628.417969 Z M 280.761719 1619.875 "/>
<path style=" stroke:none;fill-rule:nonzero;fill:rgb(23.529412%,30.980392%,49.019608%);fill-opacity:1;" d="M 803.222656 743.40625 L 816.648438 745.851562 L 822.753906 749.511719 L 820.3125 761.71875 L 817.871094 767.820312 L 808.105469 766.601562 L 798.339844 762.9375 L 799.5625 753.171875 Z M 803.222656 743.40625 "/>
<path style=" stroke:none;fill-rule:nonzero;fill:rgb(23.529412%,30.980392%,49.019608%);fill-opacity:1;" d="M 230.710938 1557.617188 L 235.59375 1560.058594 L 242.921875 1571.046875 L 241.699219 1575.929688 L 230.710938 1584.472656 L 224.609375 1583.25 L 216.0625 1571.046875 L 218.507812 1566.164062 Z M 230.710938 1557.617188 "/>
<path style=" stroke:none;fill-rule:nonzero;fill:rgb(23.529412%,30.980392%,49.019608%);fill-opacity:1;" d="M 1160.890625 1419.679688 L 1169.433594 1420.898438 L 1180.421875 1425.78125 L 1177.976562 1436.765625 L 1175.539062 1444.09375 L 1164.550781 1442.871094 L 1156.007812 1439.210938 L 1157.226562 1430.664062 Z M 1160.890625 1419.679688 "/>
<path style=" stroke:none;fill-rule:nonzero;fill:rgb(24.313725%,31.372549%,49.411765%);fill-opacity:1;" d="M 164.796875 1047.363281 L 177 1051.023438 L 181.882812 1054.6875 L 180.664062 1060.789062 L 175.78125 1071.777344 L 168.457031 1071.777344 L 156.25 1065.671875 L 157.46875 1059.570312 L 162.351562 1048.585938 Z M 164.796875 1047.363281 "/>
<path style=" stroke:none;fill-rule:nonzero;fill:rgb(23.529412%,30.980392%,49.019608%);fill-opacity:1;" d="M 1153.5625 1041.257812 L 1159.667969 1042.480469 L 1164.550781 1053.46875 L 1164.550781 1060.789062 L 1148.679688 1066.894531 L 1145.019531 1063.234375 L 1140.136719 1051.023438 L 1142.578125 1046.140625 Z M 1153.5625 1041.257812 "/>
<path style=" stroke:none;fill-rule:nonzero;fill:rgb(23.529412%,30.980392%,49.019608%);fill-opacity:1;" d="M 1179.199219 1342.773438 L 1192.625 1342.773438 L 1198.730469 1346.4375 L 1197.507812 1357.421875 L 1195.070312 1363.523438 L 1188.964844 1364.746094 L 1177.976562 1362.304688 L 1176.757812 1357.421875 Z M 1179.199219 1342.773438 "/>
<path style=" stroke:none;fill-rule:nonzero;fill:rgb(23.529412%,30.980392%,49.019608%);fill-opacity:1;" d="M 1323.242188 1226.804688 L 1325.683594 1226.804688 L 1329.34375 1237.792969 L 1328.125 1241.453125 L 1324.460938 1239.015625 L 1323.242188 1241.453125 Z M 1323.242188 1226.804688 "/>
</g>
</svg>
